# xmcd
#
# Track frame offsets:
#	150
#	17483
#	30518
#	48342
#	64850
#	79215
#	94439
#	109907
#	131888
#	146395
#	163850
#	179083
#	196275
#	213988
#	229077
#	246955
#
# Disc length: 3529 seconds
#
# Revision: 0
# Processed by: cddbd v1.5.2PL0 Copyright (c) Steve Scherf et al.
# Submitted via: audiograbber 1.83.01
#
DISCID=e70dc710
DTITLE=Sampler - Fly Away
DYEAR=1983
DGENRE=Pop
TTITLE0=ABBA - One Of Us
TTITLE1=Ricchi E Poveri - Mamma Maria
TTITLE2=Saragossa Band - Rasta Man
TTITLE3=Tony Christie - Summer Wine
TTITLE4=Trini Lopez - Trini's Tunes (Medley)
TTITLE5=Maywood - Rio
TTITLE6=James Last and Horea Crishan - Paradiesvogel
TTITLE7=Lobo - The Carribbean Disco Show (Medley)
TTITLE8=Al Bano and Romina Power - Felicita
TTITLE9=Goombay Dance Band - Seven Tears
TTITLE10=Frida - To Turn The Stone
TTITLE11=Jean-Michel Jarre - Equinoxe Part V
TTITLE12=Oliver Onions - Santamaria
TTITLE13=Juan Pardo - No Me Hables
TTITLE14=Gibson Brothers - Que Sera Mi Vida
TTITLE15=Boney M. - Hooray ! Hooray ! It's A Holi -Holiday
EXTD=
EXTT0=
EXTT1=
EXTT2=
EXTT3=
EXTT4=
EXTT5=
EXTT6=
EXTT7=
EXTT8=
EXTT9=
EXTT10=
EXTT11=
EXTT12=
EXTT13=
EXTT14=
EXTT15=
PLAYORDER=
